<svg width="36" height="36" viewBox="0 0 36 36" xmlns="http://www.w3.org/2000/svg"><g fill="none" fill-rule="evenodd"><path d="M18 .5C27.665.5 35.5 8.335 35.5 18S27.665 35.5 18 35.5.5 27.665.5 18 8.335.5 18 .5z" fill="#FFF"/><path d="M18 0c9.941 0 18 8.059 18 18s-8.059 18-18 18S0 27.941 0 18 8.059 0 18 0zm3.575 7.096h-3.028L7.123 26.883h3.46l9.014-15.609 1.076 4.022-6.685 11.584h3.458l4.325-7.484 2.012 7.484h3.097l-2.987-11.158 2.133-3.71h-3.125l-1.326-4.916z" fill="#000" fill-rule="nonzero"/></g></svg>