<svg xmlns="http://www.w3.org/2000/svg" width="36" height="36" viewBox="0 0 36 36"><g fill="none" fill-rule="evenodd"><circle cx="18" cy="18" r="17" fill="#FFF"/><path fill="#303146" d="M18 0c9.941 0 18 8.059 18 18s-8.059 18-18 18S0 27.941 0 18 8.059 0 18 0zm0 1.75c-1.787 0-3.238 3.895-3.885 9.52C8.919 9.019 4.82 8.328 3.927 9.876c-.465.806.03 2.06 1.252 3.554a1 1 0 0 0 1.324 1.436c1.012.995 2.272 2.056 3.726 3.135-4.548 3.373-7.196 6.577-6.302 8.125.894 1.548 4.992.857 10.188-1.396.14 1.216.317 2.35.527 3.382A1 1 0 0 0 15.095 30c.747 2.642 1.757 4.25 2.905 4.25 1.787 0 3.238-3.895 3.885-9.52 5.196 2.252 9.294 2.943 10.188 1.395.894-1.548-1.754-4.752-6.302-8.125 4.548-3.373 7.196-6.577 6.302-8.125-.58-1.004-2.506-1.066-5.205-.372a1 1 0 0 0-1.866.559c-.977.33-2.023.734-3.117 1.209C21.238 5.645 19.787 1.75 18 1.75zm0 21.106a57.118 57.118 0 0 0 3.4 1.66c-.613 5.437-1.95 9.234-3.4 9.234-.9 0-1.756-1.462-2.423-3.87a1 1 0 0 0-.443-1.88 41.403 41.403 0 0 1-.533-3.484A57.118 57.118 0 0 0 18 22.856zm-7.343-4.542c.971.704 2.022 1.413 3.138 2.114.049 1.317.138 2.581.262 3.774-5.015 2.189-8.972 2.929-9.697 1.673-.725-1.256 1.894-4.312 6.297-7.561zm14.686 0c4.403 3.249 7.022 6.305 6.297 7.561-.725 1.256-4.682.516-9.697-1.673.124-1.193.213-2.457.262-3.774a57.118 57.118 0 0 0 3.138-2.114zM14.31 20.748a65.712 65.712 0 0 0 3.155 1.822 56.6 56.6 0 0 1-2.921 1.416 56.6 56.6 0 0 1-.234-3.238zm7.38 0a56.6 56.6 0 0 1-.234 3.238 56.6 56.6 0 0 1-2.921-1.416 65.712 65.712 0 0 0 3.155-1.822zM18 13.712a62.833 62.833 0 0 1 3.714 2.144 62.833 62.833 0 0 1 0 4.288A62.833 62.833 0 0 1 18 22.288a62.833 62.833 0 0 1-3.714-2.144 62.833 62.833 0 0 1 0-4.288A62.833 62.833 0 0 1 18 13.712zM18.003 16a2 2 0 1 0 0 4 2 2 0 0 0 0-4zm-4.228.178a65.712 65.712 0 0 0 0 3.644A56.6 56.6 0 0 1 11.088 18a56.6 56.6 0 0 1 2.687-1.822zm8.45 0A56.6 56.6 0 0 1 24.912 18a56.6 56.6 0 0 1-2.687 1.822 65.712 65.712 0 0 0 0-3.644zM27 9.982c2.46-.647 4.185-.644 4.64.143.725 1.256-1.894 4.312-6.297 7.561a57.118 57.118 0 0 0-3.138-2.114 57.118 57.118 0 0 0-.262-3.774 41.604 41.604 0 0 1 3.216-1.257A1 1 0 0 0 27 9.982zm-22.64.143c.725-1.256 4.682-.516 9.697 1.673a57.118 57.118 0 0 0-.262 3.774 57.118 57.118 0 0 0-3.138 2.114c-1.49-1.1-2.777-2.179-3.799-3.172a1 1 0 0 0-1.313-1.404c-1.085-1.305-1.543-2.365-1.185-2.985zm17.096 1.889a56.6 56.6 0 0 1 .234 3.238 65.712 65.712 0 0 0-3.155-1.822 56.6 56.6 0 0 1 2.921-1.416zm-6.912 0a56.6 56.6 0 0 1 2.921 1.416 65.712 65.712 0 0 0-3.155 1.822 56.6 56.6 0 0 1 .234-3.238zM18 2.25c1.45 0 2.787 3.797 3.4 9.234a57.118 57.118 0 0 0-3.4 1.66 57.118 57.118 0 0 0-3.4-1.66c.613-5.437 1.95-9.234 3.4-9.234z"/></g></svg>