<svg width="36" height="36" viewBox="0 0 36 36" xmlns="http://www.w3.org/2000/svg"><g fill="none" fill-rule="evenodd"><path d="M18 .5C27.665.5 35.5 8.335 35.5 18S27.665 35.5 18 35.5.5 27.665.5 18 8.335.5 18 .5z" fill="#FFF"/><path d="M18 0c9.941 0 18 8.059 18 18s-8.059 18-18 18S0 27.941 0 18 8.059 0 18 0zm1.144 6.464a.969.969 0 0 0-1.593-.087l-.074.11L7.107 24.59a.969.969 0 0 0 .736 1.403l.126.008h5.223a3.294 3.294 0 0 0 2.69-1.498l.106-.174L21.7 14.225c.49-.916.518-2.007.083-2.943l-.1-.198-2.54-4.62zm6.521 11.456a.969.969 0 0 0-1.587-.073l-.071.107-3.818 6.633a.969.969 0 0 0 .734 1.405l.127.008h7.593a.969.969 0 0 0 .854-1.335l-.055-.113-3.777-6.632z" fill="#E84142" fill-rule="nonzero"/></g></svg>