<svg width="36" height="36" viewBox="0 0 36 36" xmlns="http://www.w3.org/2000/svg"><g fill="none" fill-rule="evenodd"><circle fill="#FFF" cx="18" cy="18" r="17"/><path d="M18 0c9.941 0 18 8.059 18 18s-8.059 18-18 18S0 27.941 0 18 8.059 0 18 0zm0 5L7 11.5v13L18 31l11-6.5v-13L18 5zm0 1.648l9.606 5.676v11.352L18 29.352l-9.606-5.676V12.324L18 6.648zm-5.283 9.83l-2.896 2.215 3.984 6.91h1.602l1.751-1.728v-.881l-1.961-1.93v-2.965l-2.48-1.621zm10.653 0l-2.48 1.62v2.966l-1.96 1.93v.881l1.75 1.729h1.602l3.984-6.91-2.896-2.216zm-2.595-.856h-5.377l.759 2.396-.208 2.93h4.275l-.21-2.947.761-2.38zm1.593-5.232h-8.643l-.93 4.47h10.503l-.93-4.47z" fill="#103F68"/></g></svg>