<svg height="36" viewBox="0 0 36 36" width="36" xmlns="http://www.w3.org/2000/svg"><g fill="none" fill-rule="evenodd"><path d="m18 0c9.9411255 0 18 8.0588745 18 18s-8.0588745 18-18 18-18-8.0588745-18-18 8.0588745-18 18-18z" fill="#000"/><g fill="#e6007a" fill-rule="nonzero" transform="translate(4.719698 5.30757)"><ellipse cx="13.280243" cy="2.6631" rx="4.57686" ry="2.6631"/><ellipse cx="13.280243" cy="22.72176" rx="4.57686" ry="2.6631"/><ellipse cx="4.594746" cy="7.677861" rx="4.57686" ry="2.6631" transform="matrix(.5 -.8660254 .8660254 .5 -4.35185 7.818097)"/><ellipse cx="21.965863" cy="17.707164" rx="4.57686" ry="2.6631" transform="matrix(.5 -.8660254 .8660254 .5 -4.351922 27.876577)"/><ellipse cx="4.594742" cy="17.70704" rx="2.6631" ry="4.57686" transform="matrix(.8660254 -.5 .5 .8660254 -8.237941 4.669664)"/><ellipse cx="21.965759" cy="7.677943" rx="2.6631" ry="4.57686" transform="matrix(.8660254 -.5 .5 .8660254 -.896118 12.011529)"/></g></g></svg>