<svg width="36" height="36" xmlns="http://www.w3.org/2000/svg"><g fill="none" fill-rule="nonzero"><circle fill="#172852" cx="18" cy="18" r="18"/><path d="M11.106 10.084c.346 2.842 1.555 5.589 3.553 7.655 2.396 2.49 5.809 4.018 9.281 3.96 1.072.034 2.126-.152 3.174-.357l.898-.176c-1.3 4.694-6.374 7.838-11.153 7.229l-.265-.038c-2.93-.374-5.636-2.11-7.268-4.56-1.842-2.706-2.306-6.301-1.19-9.38.61-1.657 1.611-3.194 2.97-4.333zm10.02-2.182c2.796.868 5.156 2.977 6.389 5.625.34.754.666 1.54.698 2.38-1.571-.911-3.294-1.502-5.02-2.04a62.473 62.473 0 0 0-1.927-.652l-1.293-.417c-1.724-.558-3.437-1.144-5.046-1.985l-.406-.24-.274-.17c-.404-.27-.763-.597-.87-1.084-.053-.525.38-.863.809-1.108l.212-.114.101-.053c2.108-.788 4.48-.79 6.628-.142z" fill="#FFD83D"/><path d="M23.193 13.867c1.726.538 3.449 1.129 5.02 2.04l.106.055c.146 1.097.252 2.214.058 3.312-.79-.334-1.431-.923-2.1-1.443-1.29-1.073-2.605-2.3-3.084-3.964" fill="#FF6F03"/></g></svg>