<svg height="36" viewBox="0 0 36 36" width="36" xmlns="http://www.w3.org/2000/svg"><g fill="none" fill-rule="nonzero"><circle cx="18" cy="18" fill="#000" r="18"/><path d="m16.8466667 1.07333333-4.3866667 6.51c-.3033333.44333334.28.98.7.60666667l4.3166667-3.75666667c.1166666-.09333333.28-.02333333.28.14v11.73666667c0 .1633333-.21.2333333-.3033334.1166667l-13.06666663-15.63333337c-.42-.51333333-1.02666667-.79333333-1.70333334-.79333333h-.46666666c-1.21333334 0-2.21666667 1.00333333-2.21666667 2.24v16.52c0 1.2366667 1.00333333 2.24 2.24 2.24.77 0 1.49333333-.3966667 1.91333333-1.0733333l4.38666667-6.51c.30333333-.4433334-.28-.98-.7-.6066667l-4.31666667 3.7333333c-.11666666.0933334-.28.0233334-.28-.14v-11.7133333c0-.16333333.21-.23333333.30333334-.11666667l13.06666663 15.63333337c.42.5133333 1.05.7933333 1.7033334.7933333h.4666666c1.2366667 0 2.24-1.0033333 2.24-2.24v-16.52c0-1.23666667-1.0033333-2.24-2.24-2.24-.7933333 0-1.5166666.39666667-1.9366666 1.07333333z" fill="#fff" transform="translate(7.488333 7.480022)"/></g></svg>