<svg height="36" viewBox="0 0 36 36" width="36" xmlns="http://www.w3.org/2000/svg"><g fill="none" fill-rule="evenodd"><circle cx="18" cy="18" fill="#f00500" fill-rule="nonzero" r="18"/><g transform="translate(4.654038 5.311376)"><g fill-rule="nonzero" transform="translate(0 .88326)"><path d="m19.5400551 1.49356937c-.6946944.69469435-1.3311509 1.44762656-1.89689 2.25047693l-.1788734-.05823785c-1.0316419-.33694757-2.1007225-.54493989-3.1781227-.61565728-.324468-.02495908-1.5349833-.02495908-1.9301687 0-1.193876.07903708-2.1090422.25791048-3.14900381.61981712-.04159846.01663939-.07903708.02911893-.1164757.04159847-.58653835-.79869052-1.23963424-1.54746288-1.95928768-2.23383755 3.45267259-1.76793474 7.49188349-1.98008691 11.10678999-.58653835.3868658.14559463.7654118.31614833 1.1356381.49918158z" fill="#f00500"/><path d="m25.9794974 17.271867c-.5241407 1.4933848-1.3103516 2.8786137-2.329514 4.0849692-.5532596.648936-1.164757 1.2437941-1.8220128 1.7845741-1.5391432 1.2396343-3.3361968 2.1256815-5.253886 2.5915844-2.1215217.5116611-4.33456.5116611-6.4560817 0-1.92184909-.4659029-3.71474292-1.3519501-5.2538861-2.5915844-.65725574-.54078-1.26875317-1.1356381-1.82201275-1.7845741-2.93269175-3.4651521-3.82289889-8.2240165-2.32951401-12.51281815.28286955-.79453067.6364565-1.55994242 1.06076084-2.28791555.19551278-.33278772.43678388-.7071739.55325958-.86108822.39934526 1.71801659.89020714 3.22804085 1.07324038 3.77298074-.01247953.02911892-.02911892.06239769-.04575831.09151662-.96924422 1.96344756-1.49338487 3.85617766-1.61818027 5.86954336 0 .0249591-.00415984.054078-.00415984.0790371-.03327878.6031777-.01663939.8902071.08319693 1.2687531.31198848 1.1855563 1.27291301 2.4917481 2.77877743 3.7729808 2.46678894 2.0965626 5.81130552 3.6107467 8.34465202 3.7854602 2.6415025.1788734 6.5392786-1.3644296 9.1350228-3.6190664.4076649-.3619066.7903708-.7446125 1.1481176-1.1522774.2579105-.299509.6406164-.8153299.6114974-.8153299-.0083197 0 0-.0083197.0166394-.0166394.0124796-.0083197.0249591-.0207993.0166394-.029119-.0041598-.0041598.0041598-.0166393.0166394-.0207992.0124795-.0041598.0207992-.0124795.0166394-.0207992-.0041599-.0083197 0-.0166394.0166394-.0207993.0124795-.0041598.0166393-.0166393.0124795-.024959-.0041599-.0083197 0-.0166394.0083197-.0166394s.0166394-.0124796.0166394-.0207992c0-.0083197.0083197-.0207993.0166394-.0207993s.0166393-.0083197.0166393-.0166394c.0124796-.0332787.0332788-.0665575.054078-.0956764.0623977-.0956765.3119885-.5407801.3452673-.6156573.2371113-.5366202.3868657-1.0150025.4575831-1.4933849.0332788-.2287915.054078-.648936.0374386-.7487723-.0041598-.0166394-.0041598-.0457584-.0083197-.0915167-.0083197-.0831969-.0124795-.2079923-.0207992-.3327877-.0083197-.1871931-.0249591-.4492634-.0374386-.5782186-.1788734-1.8885703-.6614156-3.4318734-1.5765818-5.06669303-.0374386-.06239769-.0707174-.12479539-.0915166-.17471355-.0083197-.01247954-.0124796-.02495908-.0166394-.03327877.1289552-.38686572.6572557-2.00504599 1.0774002-3.85617766l.0083197.00831969.0623977.08319693c.108156.14559463.3951854.57821866.5241406.78621098.5865384.95676469 1.0441215 1.98424676 1.3685895 3.05748714.7529322 2.58326467.6905345 5.33708297-.1913529 7.88290907z" fill="#f00500"/><g fill="#000"><path d="m20.5800167 12.3008505c-.0124795.0665575-.2079923.2662301-.4035051.4118248-.5740588.4201444-1.6015409.81117-2.6456624.9983631-.594858.108156-1.189716.1247954-1.3685894.0374386-.1164757-.0582378-.1331151-.1039961-.0915167-.2537506.0873568-.3119885.3702264-.6530959.8111701-.9734041.2246317-.162234 1.1356381-.7154936 1.5599424-.948445.6988542-.3827059 1.2645933-.6114974 1.6472992-.6655754.1206356-.0166394.2662302-.0207992.3119885 0 .0748772.0291189.1580742.2495908.1913529.515821.0166394.1414347.0083197.7654117-.0124795.8777276z"/><path d="m10.7794185 13.6777596c-.0249591.0499182-.1497545.1039962-.2911893.1247954-.1414348.0207993-.57405881.0083197-.81948975-.0207992-.88188745-.1164757-1.8178529-.3868657-2.50006772-.7196534-.38270587-.1871931-.65725574-.3743862-.86108821-.5782187l-.11647571-.1206356-.01247953-.1580741c-.02079924-.2745499-.01663939-.7071739.01663938-.8610882.02079923-.1289553.06655754-.2537507.12895524-.3660665.03327877-.0415985.03327877-.0415985.18303325-.0415985.18303324 0 .33694756.0291189.58653835.108156.51166111.1580742 1.27291301.5407801 2.20055877 1.0981995.76541173.4575831 1.05244113.6822148 1.27291303.9900434.1497545.191353.2495908.461743.2121522.5449399z"/><path d="m16.669761 19.4682659c0 .0124795-.0499181.2121522-.1123158.4492634-.0623977.2371113-.1123159.4284642-.1123159.4367839-.0457583.0041598-.0873568.0083197-.1331151.0041598h-.133115l-.1830333.4326241c-.0998363.2371112-.1913529.4575831-.2038325.4908618l-.024959.0582379-.0873568-.1414348-.0873568-.1414348v-1.1522774l-.0332788.0083197c-.0707174.0166393-.5740588.0831969-.7945306.1039961-.9110064.0915166-1.8261726.0707174-2.7330192-.0582378-.1455946-.0207993-.27039-.0374386-.2745498-.0332788-.0041599.0041598 0 .27039.0083197.5990179l.0124795.5906982-.0707174.108156c-.0374386.0582378-.0748772.108156-.0748772.1123158-.0124796.0124796-.054078-.054078-.1497545-.2454309-.1039962-.1996726-.1788734-.4118248-.2329514-.6322967l-.0291189-.1206355-.1289553.0083197-.1289552.0124795-.0332788-.1539143c-.0166394-.0831969-.0374386-.2121522-.0457583-.2828695l-.0124795-.1331151-.108156-.0956765c-.0623977-.054078-.1247954-.108156-.137275-.1164757-.0207992-.0166394-.0291189-.0457583-.0291189-.0707174v-.0499181l.5199808.0041598.5199808.0041598.0166394.054078.0166394.0540781.1788734.0083196c.0998363.0041599.4159846.0124796.6988542.0207993l.5199808.0124795.1331151-.2079923.1372749-.2079923h.1747136l-.0041599-.4326241-.0041598-.432624-.2287916-.0998363c-.7362928-.324468-1.1689168-.6946944-1.3311508-1.1439578-.0332788-.0915166-.0332788-.1247954-.0415985-.54078-.0041599-.4118248-.0041599-.4492634.0249591-.5407801.0582378-.2079923.2204718-.3702263.4284642-.4243043.0707173-.0207992.2579104-.0207992 1.2396342-.0207992l1.1564373.0041598.1289553.0623977c.1539143.0748773.2246317.1289553.3119884.245431.0998364.133115.1289553.2371112.1289553.4908618 0 .3619067-.0249591.6738952-.0623977.7986906-.054078.1705537-.1372749.3327877-.2412711.4783823-.2079923.2662302-.5865384.5324603-.9318056.6530959l-.0998363.0374386.0041598.4367839.0041599.4367839.0915166.0083197.0915166.0083197.1247954.187193.1206355.1871931h.5574195c.3078286 0 .5782186.0041599.6031777.0083197.0415985.0083197.0499182.0041599.0915166-.0665575l.0499182-.0748773h.4783823c.3577468-.0166393.4659028-.0083196.4659028.0041599z"/><path d="m14.4733621 20.6621418c-.0790371.0457583-.1331151.0665576-.1455946.0582379-.0124796-.0041599-.0707174-.054078-.1331151-.0998363l-.1123159-.0915167-.1164757.1247954c-.2537506.2745499-.2620703.2870294-.3369475.2911893-.1164757.0124795-.1414348-.0083197-.2828696-.2204719-.0748772-.108156-.1331151-.1996726-.1331151-.1996726s-.054078-.0083197-.1164757-.0124795l-.1164757-.0124796-.054078.1123159-.054078.1123158-.0956764-.0291189c-.0748773-.0249591-.1497545-.054078-.2204719-.0873568l-.1247954-.0623977v-.2371112l1.1065192.0041598 1.1065191.0041599.0041599.1123158c.0041598.1331151.0083196.1289553-.1747136.2329514z"/></g></g><path d="m24.8729782 16.4703887c-.0041598-.0166394-.0041598-.0457583-.0083197-.0915167-.9983631-.108156-3.8478579-.1747135-6.4935203 2.0092059 0 0-.8527685-3.9102557-4.8462211-3.9102557-3.99345258 0-5.47435792 3.9102557-5.47435792 3.9102557-2.23799739-2.4085511-5.23308684-2.2338376-6.31464692-2.0757634 0 .0249591-.00415984.054078-.00415984.0790371-.03327878.6031777-.01663939.8902071.08319693 1.2687531.31198848 1.1855563 1.27291301 2.4917481 2.77877743 3.7729808 2.46678894 2.0965626 5.81130552 3.6107467 8.34465202 3.7854603 2.6415025.1788734 6.5392786-1.3644297 9.1350228-3.6190665.4076649-.3619066.7903708-.7446125 1.1481176-1.1522774.2579105-.299509.6406164-.8153299.6114974-.8153299-.0083197 0 0-.0083197.0166394-.0166394.0124796-.0083197.0249591-.0207992.0166394-.0291189-.0041598-.0041599.0041598-.0166394.0166394-.0207993.0124795-.0041598.0207992-.0124795.0166394-.0207992-.0041599-.0083197 0-.0166394.0166394-.0207992.0124795-.0041599.0166393-.0166394.0124795-.0249591-.0041599-.0083197 0-.0166394.0083197-.0166394s.0166394-.0124795.0166394-.0207992.0083197-.0207993.0166394-.0207993.0166393-.0083197.0166393-.0166394c.0124796-.0332787.0332788-.0665575.054078-.0956764.0623977-.0956765.3119885-.5407801.3452673-.6156573.2371113-.5366202.3868657-1.0150025.4575831-1.4933849.0249591-.2287915.0457583-.648936.0291189-.7487723zm-10.3996161 5.0750126c-.0790371.0457583-.1331151.0665576-.1455946.0582379-.0124796-.0041599-.0707174-.054078-.1331151-.0998363l-.1123159-.0915166-.1164757.1247953c-.2537506.2745499-.2620703.2870294-.3369475.2911893-.1164757.0124795-.1414348-.0083197-.2828696-.2204719-.0748772-.108156-.1331151-.1996726-.1331151-.1996726s-.054078-.0083197-.1164757-.0124795l-.1164757-.0124796-.054078.1123159-.054078.1123158-.0956764-.0291189c-.0748773-.0249591-.1497545-.054078-.2204719-.0873568l-.1247954-.0623977v-.2371112l1.1065192.0041598 1.1065191.0041599.0041599.1123158c.0041598.1331151.0083196.1289553-.1747136.2329514zm2.0799232-.7487723c-.0623977.2371112-.1123158.4284642-.1123158.4367839-.0457583.0041598-.0873568.0083196-.1331151.0041598h-.1331151l-.1788734.4367839c-.0998363.2371112-.1913529.4575831-.2038325.4908619l-.024959.0582378-.0873568-.1414348-.0873568-.1414347v-1.1522775l-.0332788.0083197c-.0707174.0166394-.5740588.0831969-.7945306.1039961-.9110064.0915167-1.8261726.0707174-2.7330192-.0582378-.1455946-.0207992-.27039-.0374386-.2745498-.0332788-.0041599.0041599 0 .27039.0083197.5990179l.0124795.5906982-.0707174.108156c-.0374386.0582379-.0748772.108156-.0748772.1123159-.0124796.0124795-.054078-.054078-.1497545-.245431-.1039962-.1996726-.1788734-.4118248-.2329514-.6322966l-.0291189-.1206356-.1289553.0083197-.1289552.0124795-.0332788-.1539143c-.0166394-.0831969-.0374386-.2121521-.0457583-.2828695l-.0124795-.1331151-.108156-.0956765c-.0623977-.054078-.1247954-.108156-.137275-.1164757-.0207992-.0166394-.0291189-.0457583-.0291189-.0707174v-.0499181l.5199808.0041598.5199808.0041599.0166394.054078.0166394.054078.1788734.0083197c.0998363.0041598.4159846.0124795.6988542.0207992l.5199808.0124795.1331151-.2079923.1372749-.2079923h.1747136l-.0041599-.432624-.0041598-.4326241-.2287916-.0998363c-.7362928-.324468-1.1689168-.6946943-1.3311508-1.1439578-.0332788-.0915166-.0332788-.1247954-.0415985-.54078-.0041599-.4118248-.0041599-.4492634.0249591-.54078.0582378-.2079924.2204718-.3702264.4284642-.4243044.0707173-.0207992.2579104-.0207992 1.2396342-.0207992l1.1564373.0041598.1289553.0623977c.1539143.0748773.2246317.1289553.3119884.245431.0998364.1331151.1289553.2371112.1289553.4908619 0 .3619066-.0249591.6738951-.0623977.7986905-.054078.1705537-.1372749.3327877-.2412711.4783823-.2079923.2662302-.5865384.5324604-.9318056.6530959l-.0998363.0374386.0041598.4367839.0041599.4367839.0915166.0083197.0915166.0083197.1247954.1871931.1206355.187193h.5574195c.3078286 0 .5782186.0041599.6031777.0083197.0415985.0083197.0499182.0041599.0915166-.0665575l.0499182-.0748772h.4783823c.3702264 0 .4783824.0041598.4783824.0166393-.0124796-.0041598-.0665576.1996727-.1289553.4326241z" fill="#fff" fill-rule="nonzero"/><path d="m1.72759257 16.3123145c-.26207033.0532895-.41598465.1125-.41598465.1125"/><path d="m25.2348849 16.491372s-.1331151-.0605769-.3702264-.1125"/><path d="m24.8396995 16.0460843c-.0083197-.1871931-.0249591-.4492634-.0374387-.5782186-.1788733-1.8885703-.6614155-3.4318734-1.5765818-5.066693-.0374386-.0623977-.0707173-.1247954-.0915166-.1747136-.0083197-.0124795-.0124795-.024959-.0166394-.0332787.1289553-.38686575.6572558-2.00504603 1.0774003-3.8561777.5698989-2.51254726.9318056-5.44939885-.1747136-6.3312863 0 0-1.9135294-.14143478-4.4759948 2.37111248-.6946943.69469436-1.3311508 1.44762656-1.89689 2.25047693l-.1788733-.05823785c-1.031642-.33694756-2.1007225-.54493989-3.1781227-.61565728-.3244681-.02495907-1.5349834-.02495907-1.9301688 0-1.1938759.07903709-2.1090421.25791048-3.14900376.61981713-.04159846.01663938-.07903708.02911892-.1164757.04159846-.58653835-.79869052-1.23963424-1.54746288-1.95928768-2.23383754-2.66646158-2.5250268-4.65070834-2.37943218-4.65070834-2.37943218-1.1730767.91100638-.77373144 3.98097306-.16639385 6.57671725.39934526 1.71801658.89020714 3.22804085 1.07324038 3.7729807-.01247954.029119-.02911892.0623977-.04575831.0915167-.96924422 1.9634475-1.49338488 3.8561776-1.61818027 5.8695433 1.08571992-.1580742 4.07664952-.3369476 6.31880676 2.0757634 0 0 1.48090534-3.9102557 5.47435797-3.9102557 3.9934526 0 4.8462211 3.9102557 4.8462211 3.9102557 2.6456623-2.1839194 5.4951572-2.113202 6.4935203-2.0092059-.0041598-.0831969-.0124795-.2079923-.0207992-.3327877zm-20.66195737-7.26309188s-1.55578257-3.88945644-1.15643731-6.11081444c.06655754-.37438618.19135293-.70301405.38686572-.95260484 0 0 1.76377489.17471355 4.60910987 3.33619685 0 0-.54078004.26207033-1.26459332.81948976 0 0-.00415985.00415984-.0083197.00415984-.78621098.60317774-1.79289382 1.55994242-2.56662526 2.90357283zm6.60167637 5.77802668c-.0249591.0499182-.1497545.1039962-.2911893.1247954-.1414348.0207993-.57405881.0083197-.81948975-.0207992-.88188745-.1164757-1.8178529-.3868657-2.50006772-.7196534-.38270587-.1871931-.65725574-.3743862-.86108821-.5782187l-.11647571-.1206355-.01247953-.1580742c-.02079924-.2745499-.01663939-.7071739.01663938-.8610882.02079923-.1289553.06655754-.2537507.12895524-.3660665.03327877-.0415985.03327877-.0415985.18303325-.0415985.18303324 0 .33694756.029119.58653835.108156.51166111.1580742 1.27291301.5407801 2.20055877 1.0981995.76541173.4575831 1.05244113.6822148 1.27291303.9900435.1497545.1913529.2495908.4617429.2121522.5449398zm9.8005982-1.3769091c-.0124795.0665575-.2079923.2662301-.4035051.4118248-.5740588.4201445-1.6015409.81117-2.6456624.9983631-.594858.108156-1.189716.1247954-1.3685894.0374386-.1164757-.0582378-.1331151-.1039961-.0915167-.2537506.0873568-.3119885.3702264-.6530959.8111701-.9734041.2246317-.162234 1.1356381-.7154936 1.5599424-.948445.6988542-.3827058 1.2645933-.6114974 1.6472992-.6655754.1206356-.0166394.2662302-.0207992.3119885 0 .0748772.0291189.1580742.2495908.1913529.515821.0166394.1414347.0083197.7654117-.0124795.8777276zm-.6905345-7.30885025-.0083197-.00415985c-.6988542-.55741942-1.2229949-.81948975-1.2229949-.81948975 2.7496585-3.16148331 4.4510357-3.33619686 4.4510357-3.33619686.1871931.25375064.3078287.57821866.3743862.95260484.3868657 2.22135801-1.1148388 6.11497429-1.1148388 6.11497429-.6281368-1.1189987-1.4725857-2.10904215-2.4792685-2.90773267z" fill="#ffa409" fill-rule="nonzero"/><path d="m17.6963413 4.63794104c-.0225.0225-.03375.05625-.05625.07875"/><path d="m23.1736295 10.1890205c-.05625.075-.07875.1125-.07875.1125"/><g fill-rule="nonzero" transform="translate(18.658168 1.715413)"><path d="m4.82958173.95260484c-.32446802-.04159847-1.85945136-.04991816-3.59826718 3.20724161l-.00831969-.00415984c-.69885421-.55741943-1.22299486-.81948975-1.22299486-.81948975 2.74965851-3.16148331 4.45103571-3.33619686 4.45103571-3.33619686.19135293.25375063.31198848.57821866.37854602.95260484z" fill="#ff9300"/><g fill="#ff8300"><path d="m3.71474288 7.06757912c-.63229666-1.12315854-1.47258564-2.10904215-2.48342833-2.90773267 1.73881582-3.25715977 3.26963931-3.24884008 3.59826718-3.20724161.38686572 2.22551785-1.11483885 6.11497428-1.11483885 6.11497428z"/><path d="m4.94208173 1.01117038c-.0375-.01125-.075-.0225-.1125-.03375z"/></g></g><path d="m9.21947603 4.78953982c-.04159846-.05823785-.08735677-.1164757-.12895524-.17471355"/><path d="m3.39153115 10.3512545c.06875.1414348.1125.216312.1125.216312"/><g fill-rule="nonzero"><g transform="translate(2.954747 1.715413)"><path d="m5.00013544 3.33619686s-.54078004.26207032-1.26459332.81948975c0 0-.00415985.00415984-.0083197.00415984-1.80121351-3.26131962-3.38611501-3.24884008-3.72722242-3.20724161.06655754-.37438618.19135294-.70301405.38686572-.95260484.00415985 0 1.76793474.17471355 4.61326972 3.33619686z" fill="#ff9300" transform="translate(.062398)"/><g fill="#ff8300"><path d="m3.79377997 4.15984645c-.79037083.60733759-1.79705367 1.55994242-2.57078511 2.90773267 0 0-1.55578258-3.88945643-1.15643732-6.11497428.33694757-.04159847 1.92600891-.04991816 3.72722243 3.20724161z"/><path d="m.1125.97742038c-.03515625.01125-.07734375.0225-.1125.03375z"/></g></g><path d="m18.1631459 10.9419527s-1.3311509.083197-1.164757-.95676466c.1663939-1.03996161 1.2063555-1.164757 1.4975447-1.12315854.2911893.04159846 1.4559463.45758311 1.247954 1.3311509-.2079924.8735677-.4991816.7071739-.6655755.7487723-.1663938.0415985-.9151662 0-.9151662 0z" fill="#fff"/><path d="m8.34590828 10.9419527s-1.33115087.083197-1.16475701-.95676466c.16639386-1.03996161 1.20635547-1.164757 1.49754472-1.12315854.29118926.04159846 1.45594631.45758311 1.24795394 1.3311509-.20799232.8735677-.49918157.7071739-.66557543.7487723-.16639386.0415985-.91516622 0-.91516622 0z" fill="#fff"/></g></g></g></svg>