<svg width="36" height="36" viewBox="0 0 36 36" xmlns="http://www.w3.org/2000/svg"><g fill="none" fill-rule="evenodd"><circle fill="#FFF" cx="18" cy="18" r="17"/><path d="M18 0c9.941 0 18 8.059 18 18s-8.059 18-18 18S0 27.941 0 18 8.059 0 18 0zm-1.133 25.115a7.127 7.127 0 0 0-1.72.74 9.135 9.135 0 0 0-1.466 1.104c.022-.021.116-.014.211 0l.228.037c.146.018.291.04.436.07.286.055.566.142.833.26.387.189.738.446 1.035.759.07.07.138.143.205.217.12.158.256.303.404.434l.036.029.114.102c.194.157.419.269.659.33l.183.037a1.453 1.453 0 0 0 .945-.208c.093-.059.178-.13.25-.214.137-.16.229-.355.265-.564a1.1 1.1 0 0 0-.054-.597.763.763 0 0 0-.387-.418c.153.104.26.264.298.446a.962.962 0 0 1-.04.522.932.932 0 0 1-.282.41.832.832 0 0 1-.434.188c-.927.157-1.655-.95-1.148-1.739.192-.302.517-.458.864-.502.85-.104 1.576.456 2 1.152.119.195.217.4.31.608l.267.63a7.5 7.5 0 0 0 .142.31c.367.75.993 1.413 1.88 1.43.327.002.65-.071.945-.215.141-.066.278-.142.408-.228.129-.087.246-.187.364-.28-.271.123-.553.22-.843.288l-.21.038-.214.023-.207-.005a1.99 1.99 0 0 1-.2-.028c-.883-.155-1.118-.933-1.243-1.72l-.043-.294-.059-.427-.045-.265a4.51 4.51 0 0 0-.296-.947 2.763 2.763 0 0 0-.615-.86 3.01 3.01 0 0 0-.885-.55 3.743 3.743 0 0 0-.967-.251 4.887 4.887 0 0 0-1.924.148zm7.286-5.178c-.442 1.24.042 2.323.707 3.373l.227.349.588.87c.035.051.07.104.103.156l.199.313c.707 1.153 1.145 2.343.318 3.73 2.034-.845 3-3.394 2.156-5.416-.47-1.13-1.525-1.803-2.585-2.388l-.676-.368-.435-.242a8.668 8.668 0 0 1-.602-.377zM7.5 5l3.225 4.065 2.365 2.925 1.178 1.465c.313.393.637.793.943 1.186a.399.399 0 0 1-.013.502.584.584 0 0 1-.839.044l-.058-.063L9.62 9.319l3.26 5.89a.521.521 0 0 1-.1.633 1.924 1.924 0 0 0-.402.52 3.151 3.151 0 0 0-.305.948c-.053.298-.076.597-.11.837-.141.987-.781 1.984-1.391 2.745l-.431.528c-.383.476-.739.981-.846 1.59-.14.796.018 1.635.36 2.36.087.188.19.363.3.534l.347.535.105.188.091.181c.106.222.19.457.08.474 2.045-.323 3.5-1.248 3.676-2.13.17-.861-.203-1.311-.66-1.656l-.2-.142-.396-.266a2.372 2.372 0 0 1-.341-.28c-.324-.33-.567-.65-.619-1.126-.055-.515.095-.92.293-1.337l.269-.55c.232-.477.384-.99.45-1.517l.042-.625c.005-.063.011-.125.019-.187.01-.095.028-.19.05-.282a.905.905 0 0 1 .722-.658l.314-.03c.304-.033.6-.111.881-.233.312-.13.584-.338.79-.607.11-.147.191-.314.238-.493.026-.115.04-.232.04-.35l-.01-.176-.015-.13-.069-.084-.416-.484L14.8 13 13.546 11.6l-2.518-2.796L7.5 5zm15.367 14.292c.14.357.226.733.256 1.116.025.356-.023.713-.142 1.05a2.15 2.15 0 0 1-.553.837 2.83 2.83 0 0 1-.875.544c-.372.151-.785.228-1.217.294l-.659.098c-.111.018-.223.037-.335.059a6.019 6.019 0 0 0-1.155.335 4.61 4.61 0 0 0-1.034.59 7.49 7.49 0 0 1 2.25-.446l.77-.039c.131-.007.263-.016.396-.027a4.607 4.607 0 0 0 1.218-.25 2.95 2.95 0 0 0 1.096-.687c.314-.318.534-.716.636-1.151a2.57 2.57 0 0 0-.652-2.323zm-1.553-3.844c-.266 2.05 1.113 3.046 2.772 3.81l.439.194.445.187.892.365.435.185c1.501.655 2.74 1.414 2.678 2.904.833-1.088 1.192-4.045-1.262-5.567-.82-.508-1.732-.722-2.625-.867l-1.169-.174c-1.042-.159-1.979-.366-2.605-1.037zm-4.367 1.18l-.134.005a1.113 1.113 0 0 0-.964.846c-.168.624.01 1.12.867 1.036l.153-.019.172-.03c.594-.122 1.357-.46.907-1.254a1.2 1.2 0 0 0-1-.583zm-1.933-6.984c.65.059 1.284.24 1.867.536.564.303 1.071.701 1.5 1.177.435.485.844.994 1.225 1.523.404.528.808 1.072 1.321 1.551.26.246.55.458.864.63a4.622 4.622 0 0 0 .493.216c.161.063.328.115.495.163.666.191 1.349.26 2.015.296.333.018.662.031.985.055.318.019.634.069.943.149.464.121.872.4 1.157.787.065.086.125.175.18.267l.08.14c.004-.572-.327-1.502-.999-2.425l-.179-.237a7.773 7.773 0 0 0-.95-.989 6.502 6.502 0 0 0-.924-.676l-.248-.143-.03-.015c-1.32-.721-3.036-1.093-5.153-.675-.284-.346-.59-.674-.916-.981a5.275 5.275 0 0 0-1.731-1.105 4.398 4.398 0 0 0-1.995-.244zm.109.62c-.02.135-.033.271-.039.408-.024 1.124.374 2.359 1.143 3.217.246.277.543.504.874.67l.148.068c.234.1.59.216.74.048a.136.136 0 0 0 .016-.135c-.04-.115-.128-.216-.201-.32l-.066-.105-.192-.339-.085-.176a4.09 4.09 0 0 1-.206-.697l-.098-.475c-.103-.51-.234-1.046-.589-1.458-.354-.411-.905-.627-1.445-.706z" fill="#FF007A"/></g></svg>